<?xml version="1.0"?>
<svg xmlns="http://www.w3.org/2000/svg" style="overflow: hidden; position: relative; left: -0.916687px; top: 0.300003px;" width="466.0000057220459" version="1.1" height="383.75">
  <path stroke-width="2" d="M48.33333396911621,198.75H58.33333396911621" stroke="#000000" fill="none" style=""/>
  <path stroke-width="2" d="M416.0000057220459,198.75Q426.0000057220459,198.75,426.0000057220459,208.75V363.75Q426.0000057220459,373.75,416.0000057220459,373.75H88.33333396911621Q78.33333396911621,373.75,78.33333396911621,363.75V208.75Q78.33333396911621,198.75,88.33333396911621,198.75" stroke="#000000" fill="none" style=""/>
  <path stroke-width="2" d="M58.33333396911621,198.75Q68.33333396911621,198.75,68.33333396911621,188.75V20Q68.33333396911621,10,78.33333396911621,10H426.0000057220459Q436.0000057220459,10,436.0000057220459,20V188.75Q436.0000057220459,198.75,446.0000057220459,198.75" stroke="#000000" fill="none" style=""/>
  <path stroke-width="2" d="M446.0000057220459,198.75H416.0000057220459" stroke="#000000" fill="none" style=""/>
  <path stroke-width="2" d="M58.33333396911621,198.75H88.33333396911621" stroke="#000000" fill="none" style=""/>
  <path stroke-width="2" d="M416.0000057220459,198.75H406.0000057220459" stroke="#000000" fill="none" style=""/>
  <path stroke-width="2" d="M88.33333396911621,198.75H98.33333396911621" stroke="#000000" fill="none" style=""/>
  <path stroke-width="2" d="M406.0000057220459,198.75Q396.0000057220459,198.75,396.0000057220459,208.75V321.875Q396.0000057220459,331.875,386.0000057220459,331.875H327.8750023841858" stroke="#000000" fill="none" style=""/>
  <path stroke-width="2" d="M98.33333396911621,198.75Q108.33333396911621,198.75,108.33333396911621,208.75V321.875Q108.33333396911621,331.875,118.33333396911621,331.875H176.45833730697632" stroke="#000000" fill="none" style=""/>
  <path stroke-width="2" d="M327.8750023841858,331.875H317.8750023841858" stroke="#000000" fill="none" style=""/>
  <path stroke-width="2" d="M176.45833730697632,331.875H186.45833730697632" stroke="#000000" fill="none" style=""/>
  <path stroke-width="2" d="M209.2916703224182,331.875H219.2916703224182" stroke="#000000" fill="none" style=""/>
  <path stroke-width="2" d="M219.2916703224182,331.875Q229.2916703224182,331.875,229.2916703224182,321.875V320Q229.2916703224182,310,239.2916703224182,310H297.8750023841858Q307.8750023841858,310,307.8750023841858,320V321.875Q307.8750023841858,331.875,317.8750023841858,331.875" stroke="#000000" fill="none" style=""/>
  <path stroke-width="2" d="M317.8750023841858,331.875H297.8750023841858" stroke="#000000" fill="none" style=""/>
  <path stroke-width="2" d="M219.2916703224182,331.875H239.2916703224182" stroke="#000000" fill="none" style=""/>
  <path stroke-width="2" d="M406.0000057220459,198.75Q396.0000057220459,198.75,396.0000057220459,208.75V254.375Q396.0000057220459,264.375,386.0000057220459,264.375H339.87500381469727" stroke="#000000" fill="none" style=""/>
  <path stroke-width="2" d="M98.33333396911621,198.75Q108.33333396911621,198.75,108.33333396911621,208.75V254.375Q108.33333396911621,264.375,118.33333396911621,264.375H164.45833587646484" stroke="#000000" fill="none" style=""/>
  <path stroke-width="2" d="M273.12500381469727,264.375H283.12500381469727" stroke="#000000" fill="none" style=""/>
  <path stroke-width="2" d="M164.45833587646484,264.375Q174.45833587646484,264.375,174.45833587646484,254.375V252.5Q174.45833587646484,242.5,184.45833587646484,242.5H253.12500381469727Q263.12500381469727,242.5,263.12500381469727,252.5V254.375Q263.12500381469727,264.375,273.12500381469727,264.375" stroke="#000000" fill="none" style=""/>
  <path stroke-width="2" d="M273.12500381469727,264.375H253.12500381469727" stroke="#000000" fill="none" style=""/>
  <path stroke-width="2" d="M164.45833587646484,264.375H184.45833587646484" stroke="#000000" fill="none" style=""/>
  <path stroke-width="2" d="M406.0000057220459,198.75C396.0000057220459,198.75,396.0000057220459,203.75,386.0000057220459,203.75" stroke="#000000" fill="none" style=""/>
  <path stroke-width="2" d="M98.33333396911621,198.75C108.33333396911621,198.75,108.33333396911621,203.75,118.33333396911621,203.75" stroke="#000000" fill="none" style=""/>
  <path stroke-width="2" d="M276.16666984558105,203.75H286.16666984558105" stroke="#000000" fill="none" style=""/>
  <path stroke-width="2" d="M118.33333396911621,203.75Q128.3333339691162,203.75,128.3333339691162,193.75V175Q128.3333339691162,165,138.3333339691162,165H256.16666984558105Q266.16666984558105,165,266.16666984558105,175V193.75Q266.16666984558105,203.75,276.16666984558105,203.75" stroke="#000000" fill="none" style=""/>
  <path stroke-width="2" d="M276.16666984558105,203.75H256.16666984558105" stroke="#000000" fill="none" style=""/>
  <path stroke-width="2" d="M118.33333396911621,203.75H138.3333339691162" stroke="#000000" fill="none" style=""/>
  <path stroke-width="2" d="M256.16666984558105,203.75Q246.16666984558105,203.75,246.16666984558105,213.75V210.625Q246.16666984558105,220.625,236.16666984558105,220.625H233.41666793823242" stroke="#000000" fill="none" style=""/>
  <path stroke-width="2" d="M138.3333339691162,203.75Q148.3333339691162,203.75,148.3333339691162,213.75V210.625Q148.3333339691162,220.625,158.3333339691162,220.625H161.08333587646484" stroke="#000000" fill="none" style=""/>
  <path stroke-width="2" d="M256.16666984558105,203.75Q246.16666984558105,203.75,246.16666984558105,193.75V196.875Q246.16666984558105,186.875,236.16666984558105,186.875H236.16666984558105" stroke="#000000" fill="none" style=""/>
  <path stroke-width="2" d="M138.3333339691162,203.75Q148.3333339691162,203.75,148.3333339691162,193.75V196.875Q148.3333339691162,186.875,158.3333339691162,186.875H158.3333339691162" stroke="#000000" fill="none" style=""/>
  <path stroke-width="2" d="M406.0000057220459,198.75Q396.0000057220459,198.75,396.0000057220459,188.75V136.25Q396.0000057220459,126.25,386.0000057220459,126.25H382.3333377838135" stroke="#000000" fill="none" style=""/>
  <path stroke-width="2" d="M98.33333396911621,198.75Q108.33333396911621,198.75,108.33333396911621,188.75V136.25Q108.33333396911621,126.25,118.33333396911621,126.25H122.00000190734863" stroke="#000000" fill="none" style=""/>
  <path stroke-width="2" d="M279.8333377838135,126.25H289.8333377838135" stroke="#000000" fill="none" style=""/>
  <path stroke-width="2" d="M122.00000190734863,126.25Q132.00000190734863,126.25,132.00000190734863,116.25V97.5Q132.00000190734863,87.5,142.00000190734863,87.5H259.8333377838135Q269.8333377838135,87.5,269.8333377838135,97.5V116.25Q269.8333377838135,126.25,279.8333377838135,126.25" stroke="#000000" fill="none" style=""/>
  <path stroke-width="2" d="M279.8333377838135,126.25H259.8333377838135" stroke="#000000" fill="none" style=""/>
  <path stroke-width="2" d="M122.00000190734863,126.25H142.00000190734863" stroke="#000000" fill="none" style=""/>
  <path stroke-width="2" d="M259.8333377838135,126.25Q249.83333778381348,126.25,249.83333778381348,136.25V133.125Q249.83333778381348,143.125,239.83333778381348,143.125H237.08333587646484" stroke="#000000" fill="none" style=""/>
  <path stroke-width="2" d="M142.00000190734863,126.25Q152.00000190734863,126.25,152.00000190734863,136.25V133.125Q152.00000190734863,143.125,162.00000190734863,143.125H164.75000381469727" stroke="#000000" fill="none" style=""/>
  <path stroke-width="2" d="M259.8333377838135,126.25Q249.83333778381348,126.25,249.83333778381348,116.25V119.375Q249.83333778381348,109.375,239.83333778381348,109.375H239.83333778381348" stroke="#000000" fill="none" style=""/>
  <path stroke-width="2" d="M142.00000190734863,126.25Q152.00000190734863,126.25,152.00000190734863,116.25V119.375Q152.00000190734863,109.375,162.00000190734863,109.375H162.00000190734863" stroke="#000000" fill="none" style=""/>
  <path stroke-width="2" d="M406.0000057220459,198.75Q396.0000057220459,198.75,396.0000057220459,188.75V75.625Q396.0000057220459,65.625,386.0000057220459,65.625H334.83333587646484" stroke="#000000" fill="none" style=""/>
  <path stroke-width="2" d="M98.33333396911621,198.75Q108.33333396911621,198.75,108.33333396911621,188.75V75.625Q108.33333396911621,65.625,118.33333396911621,65.625H169.50000381469727" stroke="#000000" fill="none" style=""/>
  <path stroke-width="2" d="M226.25000381469727,65.625H236.25000381469727" stroke="#000000" fill="none" style=""/>
  <path stroke-width="2" d="M236.25000381469727,65.625Q246.25000381469727,65.625,246.25000381469727,55.625V53.75Q246.25000381469727,43.75,256.25000381469727,43.75H314.83333587646484Q324.83333587646484,43.75,324.83333587646484,53.75V55.625Q324.83333587646484,65.625,334.83333587646484,65.625" stroke="#000000" fill="none" style=""/>
  <path stroke-width="2" d="M334.83333587646484,65.625H314.83333587646484" stroke="#000000" fill="none" style=""/>
  <path stroke-width="2" d="M236.25000381469727,65.625H256.25000381469727" stroke="#000000" fill="none" style=""/>
  <defs/>
  <rect style="" stroke="#dae9e5" fill="#dae9e5" ry="3" rx="3" r="0" height="23.75" width="28.33333396911621" y="186.875" x="20"/>
  <text font-size="12px" fill="#000000" stroke="none" font="10px &quot;Arial&quot;" text-anchor="middle" y="198.75" x="34.166666984558105" style="text-anchor: middle; font: 12px &quot;Arial&quot;;">
    <tspan dy="4.125">"cl"</tspan>
  </text>
  <rect stroke-width="2" stroke-dasharray="6,2" style="" stroke="#a0a0a0" fill="none" ry="3" rx="3" r="0" height="330" width="327.6666717529297" y="33.75" x="88.33333396911621"/>
  <text font-size="10px" fill="#000000" stroke="none" font="10px &quot;Arial&quot;" text-anchor="middle" y="26.875" x="112.625" style="text-anchor: middle; font: 10px &quot;Arial&quot;;">
    <tspan dy="4.125">Cass options</tspan>
  </text>
  <rect stroke-width="2" stroke-dasharray="6,2" style="" stroke="#a0a0a0" fill="none" ry="3" rx="3" r="0" height="53.75" width="151.41666507720947" y="300" x="176.45833730697632"/>
  <text font-size="10px" fill="#000000" stroke="none" font="10px &quot;Arial&quot;" text-anchor="middle" y="293.125" x="200.7500033378601" style="text-anchor: middle; font: 10px &quot;Arial&quot;;">
    <tspan dy="4.125">Template</tspan>
  </text>
  <rect style="" stroke="#dae9e5" fill="#dae9e5" ry="3" rx="3" r="0" height="23.75" width="58.58333206176758" y="320" x="239.2916703224182"/>
  <text font-size="12px" fill="#000000" stroke="none" font="10px &quot;Arial&quot;" text-anchor="middle" y="331.875" x="268.583336353302" style="text-anchor: middle; font: 12px &quot;Arial&quot;;">
    <tspan dy="4.125">&lt;number&gt;</tspan>
  </text>
  <rect style="" stroke="#dae9e5" fill="#dae9e5" ry="3" rx="3" r="0" height="23.75" width="22.833333015441895" y="320" x="186.45833730697632"/>
  <text font-size="12px" fill="#000000" stroke="none" font="10px &quot;Arial&quot;" text-anchor="middle" y="331.875" x="197.87500381469727" style="text-anchor: middle; font: 12px &quot;Arial&quot;;">
    <tspan dy="4.125">"t"</tspan>
  </text>
  <rect style="" stroke="#dae9e5" fill="#dae9e5" ry="3" rx="3" r="0" height="23.75" width="56.75" y="252.5" x="283.12500381469727"/>
  <text font-size="12px" fill="#000000" stroke="none" font="10px &quot;Arial&quot;" text-anchor="middle" y="264.375" x="311.50000381469727" style="text-anchor: middle; font: 12px &quot;Arial&quot;;">
    <tspan dy="4.125">"d" - dtor</tspan>
  </text>
  <rect style="" stroke="#dae9e5" fill="#dae9e5" ry="3" rx="3" r="0" height="23.75" width="68.66666793823242" y="252.5" x="184.45833587646484"/>
  <text font-size="12px" fill="#000000" stroke="none" font="10px &quot;Arial&quot;" text-anchor="middle" y="264.375" x="218.79166984558105" style="text-anchor: middle; font: 12px &quot;Arial&quot;;">
    <tspan dy="4.125">"v" - virtual</tspan>
  </text>
  <rect style="" stroke="#dae9e5" fill="#dae9e5" ry="3" rx="3" r="0" height="23.75" width="99.83333587646484" y="191.875" x="286.16666984558105"/>
  <text font-size="12px" fill="#000000" stroke="none" font="10px &quot;Arial&quot;" text-anchor="middle" y="203.75" x="336.0833377838135" style="text-anchor: middle; font: 12px &quot;Arial&quot;;">
    <tspan dy="4.125">"mc" - move ctor</tspan>
  </text>
  <rect style="" stroke="#dae9e5" fill="#dae9e5" ry="3" rx="3" r="0" height="23.75" width="72.33333206176758" y="208.75" x="161.08333587646484"/>
  <text font-size="12px" fill="#000000" stroke="none" font="10px &quot;Arial&quot;" text-anchor="middle" y="220.625" x="197.25000190734863" style="text-anchor: middle; font: 12px &quot;Arial&quot;;">
    <tspan dy="4.125">"-" - deleted</tspan>
  </text>
  <rect style="" stroke="#dae9e5" fill="#dae9e5" ry="3" rx="3" r="0" height="23.75" width="77.83333587646484" y="175" x="158.3333339691162"/>
  <text font-size="12px" fill="#000000" stroke="none" font="10px &quot;Arial&quot;" text-anchor="middle" y="186.875" x="197.25000190734863" style="text-anchor: middle; font: 12px &quot;Arial&quot;;">
    <tspan dy="4.125">"@" - default</tspan>
  </text>
  <rect style="" stroke="#dae9e5" fill="#dae9e5" ry="3" rx="3" r="0" height="23.75" width="92.5" y="114.375" x="289.8333377838135"/>
  <text font-size="12px" fill="#000000" stroke="none" font="10px &quot;Arial&quot;" text-anchor="middle" y="126.25" x="336.0833377838135" style="text-anchor: middle; font: 12px &quot;Arial&quot;;">
    <tspan dy="4.125">"cc" - copy ctor</tspan>
  </text>
  <rect style="" stroke="#dae9e5" fill="#dae9e5" ry="3" rx="3" r="0" height="23.75" width="72.33333206176758" y="131.25" x="164.75000381469727"/>
  <text font-size="12px" fill="#000000" stroke="none" font="10px &quot;Arial&quot;" text-anchor="middle" y="143.125" x="200.91666984558105" style="text-anchor: middle; font: 12px &quot;Arial&quot;;">
    <tspan dy="4.125">"-" - deleted</tspan>
  </text>
  <rect style="" stroke="#dae9e5" fill="#dae9e5" ry="3" rx="3" r="0" height="23.75" width="77.83333587646484" y="97.5" x="162.00000190734863"/>
  <text font-size="12px" fill="#000000" stroke="none" font="10px &quot;Arial&quot;" text-anchor="middle" y="109.375" x="200.91666984558105" style="text-anchor: middle; font: 12px &quot;Arial&quot;;">
    <tspan dy="4.125">"@" - default</tspan>
  </text>
  <rect style="" stroke="#dae9e5" fill="#dae9e5" ry="3" rx="3" r="0" height="23.75" width="58.58333206176758" y="53.75" x="256.25000381469727"/>
  <text font-size="12px" fill="#000000" stroke="none" font="10px &quot;Arial&quot;" text-anchor="middle" y="65.625" x="285.54166984558105" style="text-anchor: middle; font: 12px &quot;Arial&quot;;">
    <tspan dy="4.125">&lt;number&gt;</tspan>
  </text>
  <rect style="" stroke="#dae9e5" fill="#dae9e5" ry="3" rx="3" r="0" height="23.75" width="56.75" y="53.75" x="169.50000381469727"/>
  <text font-size="12px" fill="#000000" stroke="none" font="10px &quot;Arial&quot;" text-anchor="middle" y="65.625" x="197.87500381469727" style="text-anchor: middle; font: 12px &quot;Arial&quot;;">
    <tspan dy="4.125">"c" - ctor</tspan>
  </text>
  <path stroke-width="2" d="M10,198.75H20" stroke="#000000" fill="none" style=""/>
  <circle stroke-width="2" style="" stroke="#000" fill="#6b6659" r="5" cy="198.75" cx="10"/>
  <path stroke-width="2" d="M456.0000057220459,198.75H446.0000057220459" stroke="#000000" fill="none" style=""/>
  <circle stroke-width="2" style="" stroke="#000" fill="#6b6659" r="5" cy="198.75" cx="456.0000057220459"/>
</svg>
