<?xml version="1.0"?>
<svg xmlns="http://www.w3.org/2000/svg" style="overflow: hidden; position: relative; top: 0.300003px;" width="730.1666660308838" version="1.1" height="300">
  <path stroke-width="2" d="M637.3333330154419,156.875H647.3333330154419" stroke="#000000" fill="none" style=""/>
  <path stroke-width="2" d="M428.5833330154419,156.875H438.5833330154419" stroke="#000000" fill="none" style=""/>
  <path stroke-width="2" d="M192.5,156.875H202.5" stroke="#000000" fill="none" style=""/>
  <path stroke-width="2" d="M49.25,156.875H59.25" stroke="#000000" fill="none" style=""/>
  <path stroke-width="2" d="M647.3333330154419,156.875Q657.3333330154419,156.875,657.3333330154419,146.875V145Q657.3333330154419,135,667.3333330154419,135H690.1666660308838Q700.1666660308838,135,700.1666660308838,145V146.875Q700.1666660308838,156.875,710.1666660308838,156.875" stroke="#000000" fill="none" style=""/>
  <path stroke-width="2" d="M710.1666660308838,156.875H690.1666660308838" stroke="#000000" fill="none" style=""/>
  <path stroke-width="2" d="M647.3333330154419,156.875H667.3333330154419" stroke="#000000" fill="none" style=""/>
  <path stroke-width="2" d="M607.3333330154419,156.875Q617.3333330154419,156.875,617.3333330154419,166.875V280Q617.3333330154419,290,607.3333330154419,290H468.5833330154419Q458.5833330154419,290,458.5833330154419,280V166.875Q458.5833330154419,156.875,468.5833330154419,156.875" stroke="#000000" fill="none" style=""/>
  <path stroke-width="2" d="M438.5833330154419,156.875Q448.5833330154419,156.875,448.5833330154419,146.875V20Q448.5833330154419,10,458.5833330154419,10H617.3333330154419Q627.3333330154419,10,627.3333330154419,20V146.875Q627.3333330154419,156.875,637.3333330154419,156.875" stroke="#000000" fill="none" style=""/>
  <path stroke-width="2" d="M637.3333330154419,156.875H607.3333330154419" stroke="#000000" fill="none" style=""/>
  <path stroke-width="2" d="M438.5833330154419,156.875H468.5833330154419" stroke="#000000" fill="none" style=""/>
  <path stroke-width="2" d="M607.3333330154419,156.875H597.3333330154419" stroke="#000000" fill="none" style=""/>
  <path stroke-width="2" d="M468.5833330154419,156.875H478.5833330154419" stroke="#000000" fill="none" style=""/>
  <path stroke-width="2" d="M597.3333330154419,156.875Q587.3333330154419,156.875,587.3333330154419,166.875V248.125Q587.3333330154419,258.125,577.3333330154419,258.125H577.3333330154419" stroke="#000000" fill="none" style=""/>
  <path stroke-width="2" d="M478.5833330154419,156.875Q488.5833330154419,156.875,488.5833330154419,166.875V248.125Q488.5833330154419,258.125,498.5833330154419,258.125H498.5833330154419" stroke="#000000" fill="none" style=""/>
  <path stroke-width="2" d="M597.3333330154419,156.875Q587.3333330154419,156.875,587.3333330154419,166.875V214.375Q587.3333330154419,224.375,577.3333330154419,224.375H565.8749990463257" stroke="#000000" fill="none" style=""/>
  <path stroke-width="2" d="M478.5833330154419,156.875Q488.5833330154419,156.875,488.5833330154419,166.875V214.375Q488.5833330154419,224.375,498.5833330154419,224.375H510.0416669845581" stroke="#000000" fill="none" style=""/>
  <path stroke-width="2" d="M597.3333330154419,156.875Q587.3333330154419,156.875,587.3333330154419,166.875V180.625Q587.3333330154419,190.625,577.3333330154419,190.625H567.7083330154419" stroke="#000000" fill="none" style=""/>
  <path stroke-width="2" d="M478.5833330154419,156.875Q488.5833330154419,156.875,488.5833330154419,166.875V180.625Q488.5833330154419,190.625,498.5833330154419,190.625H508.2083330154419" stroke="#000000" fill="none" style=""/>
  <path stroke-width="2" d="M597.3333330154419,156.875C587.3333330154419,156.875,587.3333330154419,156.875,572.2916669845581,156.875" stroke="#000000" fill="none" style=""/>
  <path stroke-width="2" d="M478.5833330154419,156.875C488.5833330154419,156.875,488.5833330154419,156.875,503.6249990463257,156.875" stroke="#000000" fill="none" style=""/>
  <path stroke-width="2" d="M597.3333330154419,156.875Q587.3333330154419,156.875,587.3333330154419,146.875V133.125Q587.3333330154419,123.125,577.3333330154419,123.125H570.9166669845581" stroke="#000000" fill="none" style=""/>
  <path stroke-width="2" d="M478.5833330154419,156.875Q488.5833330154419,156.875,488.5833330154419,146.875V133.125Q488.5833330154419,123.125,498.5833330154419,123.125H504.9999990463257" stroke="#000000" fill="none" style=""/>
  <path stroke-width="2" d="M597.3333330154419,156.875Q587.3333330154419,156.875,587.3333330154419,146.875V99.375Q587.3333330154419,89.375,577.3333330154419,89.375H572.7499990463257" stroke="#000000" fill="none" style=""/>
  <path stroke-width="2" d="M478.5833330154419,156.875Q488.5833330154419,156.875,488.5833330154419,146.875V99.375Q488.5833330154419,89.375,498.5833330154419,89.375H503.1666669845581" stroke="#000000" fill="none" style=""/>
  <path stroke-width="2" d="M597.3333330154419,156.875Q587.3333330154419,156.875,587.3333330154419,146.875V65.625Q587.3333330154419,55.625,577.3333330154419,55.625H569.9999990463257" stroke="#000000" fill="none" style=""/>
  <path stroke-width="2" d="M478.5833330154419,156.875Q488.5833330154419,156.875,488.5833330154419,146.875V65.625Q488.5833330154419,55.625,498.5833330154419,55.625H505.9166669845581" stroke="#000000" fill="none" style=""/>
  <path stroke-width="2" d="M202.5,156.875Q212.5,156.875,212.5,146.875V87.5Q212.5,77.5,222.5,77.5H408.5833330154419Q418.5833330154419,77.5,418.5833330154419,87.5V146.875Q418.5833330154419,156.875,428.5833330154419,156.875" stroke="#000000" fill="none" style=""/>
  <path stroke-width="2" d="M428.5833330154419,156.875H408.5833330154419" stroke="#000000" fill="none" style=""/>
  <path stroke-width="2" d="M202.5,156.875H222.5" stroke="#000000" fill="none" style=""/>
  <path stroke-width="2" d="M408.5833330154419,156.875H398.5833330154419" stroke="#000000" fill="none" style=""/>
  <path stroke-width="2" d="M222.5,156.875H232.5" stroke="#000000" fill="none" style=""/>
  <path stroke-width="2" d="M255.3333330154419,156.875H265.3333330154419" stroke="#000000" fill="none" style=""/>
  <path stroke-width="2" d="M265.3333330154419,156.875Q275.3333330154419,156.875,275.3333330154419,146.875V121.25Q275.3333330154419,111.25,285.3333330154419,111.25H378.5833330154419Q388.5833330154419,111.25,388.5833330154419,121.25V146.875Q388.5833330154419,156.875,398.5833330154419,156.875" stroke="#000000" fill="none" style=""/>
  <path stroke-width="2" d="M398.5833330154419,156.875H378.5833330154419" stroke="#000000" fill="none" style=""/>
  <path stroke-width="2" d="M265.3333330154419,156.875H285.3333330154419" stroke="#000000" fill="none" style=""/>
  <path stroke-width="2" d="M378.5833330154419,156.875H368.5833330154419" stroke="#000000" fill="none" style=""/>
  <path stroke-width="2" d="M285.3333330154419,156.875H295.3333330154419" stroke="#000000" fill="none" style=""/>
  <path stroke-width="2" d="M59.25,156.875Q69.25,156.875,69.25,146.875V121.25Q69.25,111.25,79.25,111.25H172.5Q182.5,111.25,182.5,121.25V146.875Q182.5,156.875,192.5,156.875" stroke="#000000" fill="none" style=""/>
  <path stroke-width="2" d="M192.5,156.875H172.5" stroke="#000000" fill="none" style=""/>
  <path stroke-width="2" d="M59.25,156.875H79.25" stroke="#000000" fill="none" style=""/>
  <path stroke-width="2" d="M172.5,156.875H162.5" stroke="#000000" fill="none" style=""/>
  <path stroke-width="2" d="M79.25,156.875H89.25" stroke="#000000" fill="none" style=""/>
  <defs/>
  <rect style="" stroke="#dae9e5" fill="#dae9e5" ry="3" rx="3" r="0" height="23.75" width="29.25" y="145" x="20"/>
  <text font-size="12px" fill="#000000" stroke="none" font="10px &quot;Arial&quot;" text-anchor="middle" y="156.875" x="34.625" style="text-anchor: middle; font: 12px &quot;Arial&quot;;">
    <tspan dy="4.125">"fn"</tspan>
  </text>
  <rect stroke-width="2" stroke-dasharray="6,2" style="" stroke="#a0a0a0" fill="none" ry="3" rx="3" r="0" height="43.75" width="93.25" y="135" x="79.25"/>
  <text font-size="10px" fill="#000000" stroke="none" font="10px &quot;Arial&quot;" text-anchor="middle" y="128.125" x="103.54166603088379" style="text-anchor: middle; font: 10px &quot;Arial&quot;;">
    <tspan dy="4.125">Arity</tspan>
  </text>
  <rect style="" stroke="#dae9e5" fill="#dae9e5" ry="3" rx="3" r="0" height="23.75" width="73.25" y="145" x="89.25"/>
  <text font-size="12px" fill="#000000" stroke="none" font="10px &quot;Arial&quot;" text-anchor="middle" y="156.875" x="125.875" style="text-anchor: middle; font: 12px &quot;Arial&quot;;">
    <tspan dy="4.125">&lt;number&gt;</tspan>
  </text>
  <rect stroke-width="2" stroke-dasharray="6,2" style="" stroke="#a0a0a0" fill="none" ry="3" rx="3" r="0" height="87.5" width="186.0833330154419" y="101.25" x="222.5"/>
  <text font-size="10px" fill="#000000" stroke="none" font="10px &quot;Arial&quot;" text-anchor="middle" y="94.375" x="246.7916660308838" style="text-anchor: middle; font: 10px &quot;Arial&quot;;">
    <tspan dy="4.125">Template</tspan>
  </text>
  <rect stroke-width="2" stroke-dasharray="6,2" style="" stroke="#a0a0a0" fill="none" ry="3" rx="3" r="0" height="43.75" width="93.25" y="135" x="285.3333330154419"/>
  <text font-size="10px" fill="#000000" stroke="none" font="10px &quot;Arial&quot;" text-anchor="middle" y="128.125" x="309.6249990463257" style="text-anchor: middle; font: 10px &quot;Arial&quot;;">
    <tspan dy="4.125">Arity</tspan>
  </text>
  <rect style="" stroke="#dae9e5" fill="#dae9e5" ry="3" rx="3" r="0" height="23.75" width="73.25" y="145" x="295.3333330154419"/>
  <text font-size="12px" fill="#000000" stroke="none" font="10px &quot;Arial&quot;" text-anchor="middle" y="156.875" x="331.9583330154419" style="text-anchor: middle; font: 12px &quot;Arial&quot;;">
    <tspan dy="4.125">&lt;number&gt;</tspan>
  </text>
  <rect style="" stroke="#dae9e5" fill="#dae9e5" ry="3" rx="3" r="0" height="23.75" width="22.833333015441895" y="145" x="232.5"/>
  <text font-size="12px" fill="#000000" stroke="none" font="10px &quot;Arial&quot;" text-anchor="middle" y="156.875" x="243.91666650772095" style="text-anchor: middle; font: 12px &quot;Arial&quot;;">
    <tspan dy="4.125">"t"</tspan>
  </text>
  <rect stroke-width="2" stroke-dasharray="6,2" style="" stroke="#a0a0a0" fill="none" ry="3" rx="3" r="0" height="246.25" width="138.75" y="33.75" x="468.5833330154419"/>
  <text font-size="10px" fill="#000000" stroke="none" font="10px &quot;Arial&quot;" text-anchor="middle" y="26.875" x="492.8749990463257" style="text-anchor: middle; font: 10px &quot;Arial&quot;;">
    <tspan dy="4.125">Modifiers</tspan>
  </text>
  <rect style="" stroke="#dae9e5" fill="#dae9e5" ry="3" rx="3" r="0" height="23.75" width="78.75" y="246.25" x="498.5833330154419"/>
  <text font-size="12px" fill="#000000" stroke="none" font="10px &quot;Arial&quot;" text-anchor="middle" y="258.125" x="537.9583330154419" style="text-anchor: middle; font: 12px &quot;Arial&quot;;">
    <tspan dy="4.125">"o" - override</tspan>
  </text>
  <rect style="" stroke="#dae9e5" fill="#dae9e5" ry="3" rx="3" r="0" height="23.75" width="55.83333206176758" y="212.5" x="510.0416669845581"/>
  <text font-size="12px" fill="#000000" stroke="none" font="10px &quot;Arial&quot;" text-anchor="middle" y="224.375" x="537.9583330154419" style="text-anchor: middle; font: 12px &quot;Arial&quot;;">
    <tspan dy="4.125">"f" - final</tspan>
  </text>
  <rect style="" stroke="#dae9e5" fill="#dae9e5" ry="3" rx="3" r="0" height="23.75" width="59.5" y="178.75" x="508.2083330154419"/>
  <text font-size="12px" fill="#000000" stroke="none" font="10px &quot;Arial&quot;" text-anchor="middle" y="190.625" x="537.9583330154419" style="text-anchor: middle; font: 12px &quot;Arial&quot;;">
    <tspan dy="4.125">"p" - pure</tspan>
  </text>
  <rect style="" stroke="#dae9e5" fill="#dae9e5" ry="3" rx="3" r="0" height="23.75" width="68.66666793823242" y="145" x="503.6249990463257"/>
  <text font-size="12px" fill="#000000" stroke="none" font="10px &quot;Arial&quot;" text-anchor="middle" y="156.875" x="537.9583330154419" style="text-anchor: middle; font: 12px &quot;Arial&quot;;">
    <tspan dy="4.125">"v" - virtual</tspan>
  </text>
  <rect style="" stroke="#dae9e5" fill="#dae9e5" ry="3" rx="3" r="0" height="23.75" width="65.91666793823242" y="111.25" x="504.9999990463257"/>
  <text font-size="12px" fill="#000000" stroke="none" font="10px &quot;Arial&quot;" text-anchor="middle" y="123.125" x="537.9583330154419" style="text-anchor: middle; font: 12px &quot;Arial&quot;;">
    <tspan dy="4.125">"c" - const</tspan>
  </text>
  <rect style="" stroke="#dae9e5" fill="#dae9e5" ry="3" rx="3" r="0" height="23.75" width="69.58333206176758" y="77.5" x="503.1666669845581"/>
  <text font-size="12px" fill="#000000" stroke="none" font="10px &quot;Arial&quot;" text-anchor="middle" y="89.375" x="537.9583330154419" style="text-anchor: middle; font: 12px &quot;Arial&quot;;">
    <tspan dy="4.125">"s"  static</tspan>
  </text>
  <rect style="" stroke="#dae9e5" fill="#dae9e5" ry="3" rx="3" r="0" height="23.75" width="64.08333206176758" y="43.75" x="505.9166669845581"/>
  <text font-size="12px" fill="#000000" stroke="none" font="10px &quot;Arial&quot;" text-anchor="middle" y="55.625" x="537.9583330154419" style="text-anchor: middle; font: 12px &quot;Arial&quot;;">
    <tspan dy="4.125">"i" - inline</tspan>
  </text>
  <rect style="" stroke="#dae9e5" fill="#dae9e5" ry="3" rx="3" r="0" height="23.75" width="22.833333015441895" y="145" x="667.3333330154419"/>
  <text font-size="12px" fill="#000000" stroke="none" font="10px &quot;Arial&quot;" text-anchor="middle" y="156.875" x="678.7499995231628" style="text-anchor: middle; font: 12px &quot;Arial&quot;;">
    <tspan dy="4.125">"{"</tspan>
  </text>
  <path stroke-width="2" d="M10,156.875H20" stroke="#000000" fill="none" style=""/>
  <circle stroke-width="2" style="" stroke="#000" fill="#6b6659" r="5" cy="156.875" cx="10"/>
  <path stroke-width="2" d="M720.1666660308838,156.875H710.1666660308838" stroke="#000000" fill="none" style=""/>
  <circle stroke-width="2" style="" stroke="#000" fill="#6b6659" r="5" cy="156.875" cx="720.1666660308838"/>
</svg>
