<?xml version="1.0"?>
<svg xmlns="http://www.w3.org/2000/svg" style="overflow: hidden; position: relative; top: 0.300003px;" width="1036.833339691162" version="1.1" height="183.75">
  <path stroke-width="2" d="M898.1666717529297,94.375H908.1666717529297" stroke="#000000" fill="none" style=""/>
  <path stroke-width="2" d="M825.3333387374878,94.375H835.3333387374878" stroke="#000000" fill="none" style=""/>
  <path stroke-width="2" d="M662.416672706604,94.375H672.416672706604" stroke="#000000" fill="none" style=""/>
  <path stroke-width="2" d="M546.5000047683716,94.375H556.5000047683716" stroke="#000000" fill="none" style=""/>
  <path stroke-width="2" d="M122.0833330154419,94.375H132.0833330154419" stroke="#000000" fill="none" style=""/>
  <path stroke-width="2" d="M42.833333015441895,94.375H52.833333015441895" stroke="#000000" fill="none" style=""/>
  <path stroke-width="2" d="M908.1666717529297,94.375Q918.1666717529297,94.375,918.1666717529297,84.375V82.5Q918.1666717529297,72.5,928.1666717529297,72.5H996.8333396911621Q1006.8333396911621,72.5,1006.8333396911621,82.5V84.375Q1006.8333396911621,94.375,1016.8333396911621,94.375" stroke="#000000" fill="none" style=""/>
  <path stroke-width="2" d="M1016.8333396911621,94.375H996.8333396911621" stroke="#000000" fill="none" style=""/>
  <path stroke-width="2" d="M908.1666717529297,94.375H928.1666717529297" stroke="#000000" fill="none" style=""/>
  <path stroke-width="2" d="M835.3333387374878,94.375Q845.3333387374878,94.375,845.3333387374878,84.375V82.5Q845.3333387374878,72.5,855.3333387374878,72.5H878.1666717529297Q888.1666717529297,72.5,888.1666717529297,82.5V84.375Q888.1666717529297,94.375,898.1666717529297,94.375" stroke="#000000" fill="none" style=""/>
  <path stroke-width="2" d="M898.1666717529297,94.375H878.1666717529297" stroke="#000000" fill="none" style=""/>
  <path stroke-width="2" d="M835.3333387374878,94.375H855.3333387374878" stroke="#000000" fill="none" style=""/>
  <path stroke-width="2" d="M795.3333387374878,94.375Q805.3333387374878,94.375,805.3333387374878,104.375V150Q805.3333387374878,160,795.3333387374878,160H702.416672706604Q692.416672706604,160,692.416672706604,150V104.375Q692.416672706604,94.375,702.416672706604,94.375" stroke="#000000" fill="none" style=""/>
  <path stroke-width="2" d="M672.416672706604,94.375Q682.416672706604,94.375,682.416672706604,84.375V25Q682.416672706604,15,692.416672706604,15H805.3333387374878Q815.3333387374878,15,815.3333387374878,25V84.375Q815.3333387374878,94.375,825.3333387374878,94.375" stroke="#000000" fill="none" style=""/>
  <path stroke-width="2" d="M825.3333387374878,94.375H795.3333387374878" stroke="#000000" fill="none" style=""/>
  <path stroke-width="2" d="M672.416672706604,94.375H702.416672706604" stroke="#000000" fill="none" style=""/>
  <path stroke-width="2" d="M795.3333387374878,94.375H785.3333387374878" stroke="#000000" fill="none" style=""/>
  <path stroke-width="2" d="M702.416672706604,94.375H712.416672706604" stroke="#000000" fill="none" style=""/>
  <path stroke-width="2" d="M785.3333387374878,94.375Q775.3333387374878,94.375,775.3333387374878,104.375V118.125Q775.3333387374878,128.125,765.3333387374878,128.125H765.3333387374878" stroke="#000000" fill="none" style=""/>
  <path stroke-width="2" d="M712.416672706604,94.375Q722.416672706604,94.375,722.416672706604,104.375V118.125Q722.416672706604,128.125,732.416672706604,128.125H732.416672706604" stroke="#000000" fill="none" style=""/>
  <path stroke-width="2" d="M785.3333387374878,94.375C775.3333387374878,94.375,775.3333387374878,94.375,760.2916722297668,94.375" stroke="#000000" fill="none" style=""/>
  <path stroke-width="2" d="M712.416672706604,94.375C722.416672706604,94.375,722.416672706604,94.375,737.458339214325,94.375" stroke="#000000" fill="none" style=""/>
  <path stroke-width="2" d="M785.3333387374878,94.375Q775.3333387374878,94.375,775.3333387374878,84.375V70.625Q775.3333387374878,60.625,765.3333387374878,60.625H762.5833387374878" stroke="#000000" fill="none" style=""/>
  <path stroke-width="2" d="M712.416672706604,94.375Q722.416672706604,94.375,722.416672706604,84.375V70.625Q722.416672706604,60.625,732.416672706604,60.625H735.166672706604" stroke="#000000" fill="none" style=""/>
  <path stroke-width="2" d="M556.5000047683716,94.375Q566.5000047683716,94.375,566.5000047683716,84.375V82.5Q566.5000047683716,72.5,576.5000047683716,72.5H642.416672706604Q652.416672706604,72.5,652.416672706604,82.5V84.375Q652.416672706604,94.375,662.416672706604,94.375" stroke="#000000" fill="none" style=""/>
  <path stroke-width="2" d="M662.416672706604,94.375H642.416672706604" stroke="#000000" fill="none" style=""/>
  <path stroke-width="2" d="M556.5000047683716,94.375H576.5000047683716" stroke="#000000" fill="none" style=""/>
  <path stroke-width="2" d="M132.0833330154419,94.375Q142.0833330154419,94.375,142.0833330154419,84.375V20Q142.0833330154419,10,152.0833330154419,10H526.5000047683716Q536.5000047683716,10,536.5000047683716,20V84.375Q536.5000047683716,94.375,546.5000047683716,94.375" stroke="#000000" fill="none" style=""/>
  <path stroke-width="2" d="M546.5000047683716,94.375H526.5000047683716" stroke="#000000" fill="none" style=""/>
  <path stroke-width="2" d="M132.0833330154419,94.375H152.0833330154419" stroke="#000000" fill="none" style=""/>
  <path stroke-width="2" d="M526.5000047683716,94.375H516.5000047683716" stroke="#000000" fill="none" style=""/>
  <path stroke-width="2" d="M152.0833330154419,94.375H162.0833330154419" stroke="#000000" fill="none" style=""/>
  <path stroke-width="2" d="M516.5000047683716,94.375Q506.5000047683716,94.375,506.5000047683716,104.375V106.25Q506.5000047683716,116.25,496.5000047683716,116.25H496.5000047683716" stroke="#000000" fill="none" style=""/>
  <path stroke-width="2" d="M162.0833330154419,94.375Q172.0833330154419,94.375,172.0833330154419,104.375V106.25Q172.0833330154419,116.25,182.0833330154419,116.25H182.0833330154419" stroke="#000000" fill="none" style=""/>
  <path stroke-width="2" d="M287.41666889190674,116.25H297.41666889190674" stroke="#000000" fill="none" style=""/>
  <path stroke-width="2" d="M297.41666889190674,116.25Q307.41666889190674,116.25,307.41666889190674,106.25V87.5Q307.41666889190674,77.5,317.41666889190674,77.5H476.5000047683716Q486.5000047683716,77.5,486.5000047683716,87.5V106.25Q486.5000047683716,116.25,496.5000047683716,116.25" stroke="#000000" fill="none" style=""/>
  <path stroke-width="2" d="M496.5000047683716,116.25H476.5000047683716" stroke="#000000" fill="none" style=""/>
  <path stroke-width="2" d="M297.41666889190674,116.25H317.41666889190674" stroke="#000000" fill="none" style=""/>
  <path stroke-width="2" d="M476.5000047683716,116.25Q466.5000047683716,116.25,466.5000047683716,126.25V123.125Q466.5000047683716,133.125,456.5000047683716,133.125H456.5000047683716" stroke="#000000" fill="none" style=""/>
  <path stroke-width="2" d="M317.41666889190674,116.25Q327.41666889190674,116.25,327.41666889190674,126.25V123.125Q327.41666889190674,133.125,337.41666889190674,133.125H337.41666889190674" stroke="#000000" fill="none" style=""/>
  <path stroke-width="2" d="M476.5000047683716,116.25Q466.5000047683716,116.25,466.5000047683716,106.25V109.375Q466.5000047683716,99.375,456.5000047683716,99.375H454.20833683013916" stroke="#000000" fill="none" style=""/>
  <path stroke-width="2" d="M317.41666889190674,116.25Q327.41666889190674,116.25,327.41666889190674,106.25V109.375Q327.41666889190674,99.375,337.41666889190674,99.375H339.70833683013916" stroke="#000000" fill="none" style=""/>
  <path stroke-width="2" d="M516.5000047683716,94.375Q506.5000047683716,94.375,506.5000047683716,84.375V65.625Q506.5000047683716,55.625,496.5000047683716,55.625H369.04166889190674" stroke="#000000" fill="none" style=""/>
  <path stroke-width="2" d="M162.0833330154419,94.375Q172.0833330154419,94.375,172.0833330154419,84.375V65.625Q172.0833330154419,55.625,182.0833330154419,55.625H309.54166889190674" stroke="#000000" fill="none" style=""/>
  <path stroke-width="2" d="M52.833333015441895,94.375Q62.833333015441895,94.375,62.833333015441895,84.375V82.5Q62.833333015441895,72.5,72.8333330154419,72.5H102.0833330154419Q112.0833330154419,72.5,112.0833330154419,82.5V84.375Q112.0833330154419,94.375,122.0833330154419,94.375" stroke="#000000" fill="none" style=""/>
  <path stroke-width="2" d="M122.0833330154419,94.375H102.0833330154419" stroke="#000000" fill="none" style=""/>
  <path stroke-width="2" d="M52.833333015441895,94.375H72.8333330154419" stroke="#000000" fill="none" style=""/>
  <defs/>
  <rect style="" stroke="#dae9e5" fill="#dae9e5" ry="3" rx="3" r="0" height="23.75" width="22.833333015441895" y="82.5" x="20"/>
  <text font-size="12px" fill="#000000" stroke="none" font="10px &quot;Arial&quot;" text-anchor="middle" y="94.375" x="31.416666507720947" style="text-anchor: middle; font: 12px &quot;Arial&quot;;">
    <tspan dy="4.125">"f"</tspan>
  </text>
  <text font-size="10px" fill="#000000" stroke="none" font="10px &quot;Arial&quot;" text-anchor="middle" y="166.875" x="792.3333387374878" style="text-anchor: middle; font: 10px &quot;Arial&quot;;">
    <tspan dy="4.125">upto 2 times</tspan>
  </text>
  <rect stroke-width="2" stroke-dasharray="6,2" style="" stroke="#a0a0a0" fill="none" ry="3" rx="3" r="0" height="121.25" width="374.4166717529297" y="33.75" x="152.0833330154419"/>
  <text font-size="10px" fill="#000000" stroke="none" font="10px &quot;Arial&quot;" text-anchor="middle" y="26.875" x="176.37499904632568" style="text-anchor: middle; font: 10px &quot;Arial&quot;;">
    <tspan dy="4.125">Type</tspan>
  </text>
  <rect style="" stroke="#dae9e5" fill="#dae9e5" ry="3" rx="3" r="0" height="23.75" width="119.08333587646484" y="121.25" x="337.41666889190674"/>
  <text font-size="12px" fill="#000000" stroke="none" font="10px &quot;Arial&quot;" text-anchor="middle" y="133.125" x="396.95833683013916" style="text-anchor: middle; font: 12px &quot;Arial&quot;;">
    <tspan dy="4.125">"11" - C++11 version</tspan>
  </text>
  <rect style="" stroke="#dae9e5" fill="#dae9e5" ry="3" rx="3" r="0" height="23.75" width="114.5" y="87.5" x="339.70833683013916"/>
  <text font-size="12px" fill="#000000" stroke="none" font="10px &quot;Arial&quot;" text-anchor="middle" y="99.375" x="396.95833683013916" style="text-anchor: middle; font: 12px &quot;Arial&quot;;">
    <tspan dy="4.125">"3" - C++03 version</tspan>
  </text>
  <rect style="" stroke="#dae9e5" fill="#dae9e5" ry="3" rx="3" r="0" height="23.75" width="105.33333587646484" y="104.375" x="182.0833330154419"/>
  <text font-size="12px" fill="#000000" stroke="none" font="10px &quot;Arial&quot;" text-anchor="middle" y="116.25" x="234.75000095367432" style="text-anchor: middle; font: 12px &quot;Arial&quot;;">
    <tspan dy="4.125">"i" - iterator based</tspan>
  </text>
  <rect style="" stroke="#dae9e5" fill="#dae9e5" ry="3" rx="3" r="0" height="23.75" width="59.5" y="43.75" x="309.54166889190674"/>
  <text font-size="12px" fill="#000000" stroke="none" font="10px &quot;Arial&quot;" text-anchor="middle" y="55.625" x="339.29166889190674" style="text-anchor: middle; font: 12px &quot;Arial&quot;;">
    <tspan dy="4.125">"a" - auto</tspan>
  </text>
  <rect stroke-width="2" stroke-dasharray="6,2" style="" stroke="#a0a0a0" fill="none" ry="3" rx="3" r="0" height="111.25" width="92.91666603088379" y="38.75" x="702.416672706604"/>
  <text font-size="10px" fill="#000000" stroke="none" font="10px &quot;Arial&quot;" text-anchor="middle" y="31.875" x="726.7083387374878" style="text-anchor: middle; font: 10px &quot;Arial&quot;;">
    <tspan dy="4.125">Ref type</tspan>
  </text>
  <rect style="" stroke="#dae9e5" fill="#dae9e5" ry="3" rx="3" r="0" height="23.75" width="32.91666603088379" y="116.25" x="732.416672706604"/>
  <text font-size="12px" fill="#000000" stroke="none" font="10px &quot;Arial&quot;" text-anchor="middle" y="128.125" x="748.8750057220459" style="text-anchor: middle; font: 12px &quot;Arial&quot;;">
    <tspan dy="4.125">"ref"</tspan>
  </text>
  <rect style="" stroke="#dae9e5" fill="#dae9e5" ry="3" rx="3" r="0" height="23.75" width="22.833333015441895" y="82.5" x="737.458339214325"/>
  <text font-size="12px" fill="#000000" stroke="none" font="10px &quot;Arial&quot;" text-anchor="middle" y="94.375" x="748.8750057220459" style="text-anchor: middle; font: 12px &quot;Arial&quot;;">
    <tspan dy="4.125">"r"</tspan>
  </text>
  <rect style="" stroke="#dae9e5" fill="#dae9e5" ry="3" rx="3" r="0" height="23.75" width="27.41666603088379" y="48.75" x="735.166672706604"/>
  <text font-size="12px" fill="#000000" stroke="none" font="10px &quot;Arial&quot;" text-anchor="middle" y="60.625" x="748.8750057220459" style="text-anchor: middle; font: 12px &quot;Arial&quot;;">
    <tspan dy="4.125">"&amp;"</tspan>
  </text>
  <rect style="" stroke="#dae9e5" fill="#dae9e5" ry="3" rx="3" r="0" height="23.75" width="22.833333015441895" y="82.5" x="855.3333387374878"/>
  <text font-size="12px" fill="#000000" stroke="none" font="10px &quot;Arial&quot;" text-anchor="middle" y="94.375" x="866.7500052452087" style="text-anchor: middle; font: 12px &quot;Arial&quot;;">
    <tspan dy="4.125">"{"</tspan>
  </text>
  <rect style="" stroke="#dae9e5" fill="#dae9e5" ry="3" rx="3" r="0" height="23.75" width="29.25" y="82.5" x="72.8333330154419"/>
  <text font-size="12px" fill="#000000" stroke="none" font="10px &quot;Arial&quot;" text-anchor="middle" y="94.375" x="87.4583330154419" style="text-anchor: middle; font: 12px &quot;Arial&quot;;">
    <tspan dy="4.125">"or"</tspan>
  </text>
  <rect style="" stroke="#dae9e5" fill="#dae9e5" ry="3" rx="3" r="0" height="23.75" width="65.91666793823242" y="82.5" x="576.5000047683716"/>
  <text font-size="12px" fill="#000000" stroke="none" font="10px &quot;Arial&quot;" text-anchor="middle" y="94.375" x="609.4583387374878" style="text-anchor: middle; font: 12px &quot;Arial&quot;;">
    <tspan dy="4.125">"c" - const</tspan>
  </text>
  <rect style="" stroke="#dae9e5" fill="#dae9e5" ry="3" rx="3" r="0" height="23.75" width="68.66666793823242" y="82.5" x="928.1666717529297"/>
  <text font-size="12px" fill="#000000" stroke="none" font="10px &quot;Arial&quot;" text-anchor="middle" y="94.375" x="962.5000057220459" style="text-anchor: middle; font: 12px &quot;Arial&quot;;">
    <tspan dy="4.125">&lt;var-name&gt;</tspan>
  </text>
  <path stroke-width="2" d="M10,94.375H20" stroke="#000000" fill="none" style=""/>
  <circle stroke-width="2" style="" stroke="#000" fill="#6b6659" r="5" cy="94.375" cx="10"/>
  <path stroke-width="2" d="M1026.833339691162,94.375H1016.8333396911621" stroke="#000000" fill="none" style=""/>
  <circle stroke-width="2" style="" stroke="#000" fill="#6b6659" r="5" cy="94.375" cx="1026.833339691162"/>
</svg>
