<?xml version="1.0"?>
<svg xmlns="http://www.w3.org/2000/svg" style="overflow: hidden; position: relative; top: 0.300003px;" width="262.1666717529297" version="1.1" height="53.75">
  <path stroke-width="2" d="M52,31.875H62" stroke="#000000" fill="none" style=""/>
  <path stroke-width="2" d="M62,31.875Q72,31.875,72,21.875V20Q72,10,82,10H222.1666717529297Q232.1666717529297,10,232.1666717529297,20V21.875Q232.1666717529297,31.875,242.1666717529297,31.875" stroke="#000000" fill="none" style=""/>
  <path stroke-width="2" d="M242.1666717529297,31.875H222.1666717529297" stroke="#000000" fill="none" style=""/>
  <path stroke-width="2" d="M62,31.875H82" stroke="#000000" fill="none" style=""/>
  <defs/>
  <rect style="" stroke="#dae9e5" fill="#dae9e5" ry="3" rx="3" r="0" height="23.75" width="32" y="20" x="20"/>
  <text font-size="12px" fill="#000000" stroke="none" font="10px &quot;Arial&quot;" text-anchor="middle" y="31.875" x="36" style="text-anchor: middle; font: 12px &quot;Arial&quot;;">
    <tspan dy="4.125">"ns"</tspan>
  </text>
  <rect style="" stroke="#dae9e5" fill="#dae9e5" ry="3" rx="3" r="0" height="23.75" width="140.1666717529297" y="20" x="82"/>
  <text font-size="12px" fill="#000000" stroke="none" font="10px &quot;Arial&quot;" text-anchor="middle" y="31.875" x="152.08333587646484" style="text-anchor: middle; font: 12px &quot;Arial&quot;;">
    <tspan dy="4.125">&lt;ns-quialified-names&gt;</tspan>
  </text>
  <path stroke-width="2" d="M10,31.875H20" stroke="#000000" fill="none" style=""/>
  <circle stroke-width="2" style="" stroke="#000" fill="#6b6659" r="5" cy="31.875" cx="10"/>
  <path stroke-width="2" d="M252.1666717529297,31.875H242.1666717529297" stroke="#000000" fill="none" style=""/>
  <circle stroke-width="2" style="" stroke="#000" fill="#6b6659" r="5" cy="31.875" cx="252.1666717529297"/>
</svg>

